# xmcd
#
# Track frame offsets: 
#        150
#        30354
#        59560
#        83714
#        106597
#        130570
#        153580
#        171327
#        197615
#        224322
#        248156
#        266600
#        280931
#        316088
#
# Disc length: 4555 seconds
#
# Revision: 0
# Processed by: cddbd v1.5.2PL0 Copyright (c) Steve Scherf et al.
# Submitted via: ExactAudioCopy v0.95a5
#
DISCID=b811c90e
DTITLE=Layce Baker - R&B Favorites
DYEAR=1900
DGENRE=Blues
TTITLE0=Affirmation - George Benson
TTITLE1=Everyday I Have the Blues - B.B. King
TTITLE2=Tore Down - Freddy King
TTITLE3=Red Rooster - Sam Cooke
TTITLE4=My Girl - The Temptations
TTITLE5=Stand by Me - Ben E. King
TTITLE6=I'll be Around - The Spinners
TTITLE7=Can't Sleep at Night - Layce Baker
TTITLE8=Mustang Sally - Wilson Picket
TTITLE9=Running and Hiding - Jimmy Reed
TTITLE10=Sitting on the Dock of the Bay - Otis Redding
TTITLE11=Knock on Wood - Eddie Floyd
TTITLE12=If Trouble Was Money - Albert Collins
TTITLE13=Let's Stay Together - Al Green
EXTD=
EXTT0=
EXTT1=
EXTT2=
EXTT3=
EXTT4=
EXTT5=
EXTT6=
EXTT7=
EXTT8=
EXTT9=
EXTT10=
EXTT11=
EXTT12=
EXTT13=
PLAYORDER=
